<svg viewBox="0 0 474.136 474.136">
  <g fill="#d80027">
    <path
      d="M201.068 466.136c61.856 0 112-50.144 112-112s-112-176-112-176-112 114.144-112 176c0 61.856 50.144 112 112 112zm-8-48c-35.33-.04-63.96-28.67-64-64 .04 35.33 28.67 63.96 64 64zM385.068 138.136c0-16.936-27.752-61.048-64-104.408-34.4 41.248-64 86.152-64 104.408 0 35.346 28.654 64 64 64s64-28.654 64-64zM209.068 67.328c-1.6-6.296-11.248-25.448-32-53.784-19.544 26.656-30.312 46.4-32 53.6-.049 17.673 14.239 32.039 31.912 32.088s32.039-14.239 32.088-31.912v.008z" />
  </g>
  <g fill="#231f20">
    <path
      d="M201.068 474.136c-66.243-.075-119.925-53.757-120-120 0-64.392 109.6-176.8 114.288-181.6l5.712-5.824 5.712 5.824c4.688 4.8 114.288 117.208 114.288 181.6-.075 66.243-53.757 119.925-120 120zm0-284.408c-22.536 24-104 114.272-104 164.408 0 57.438 46.562 104 104 104s104-46.562 104-104c0-50.168-81.464-140.4-104-164.408z" />
    <path
      d="M193.068 426.136c-39.746-.044-71.956-32.254-72-72h16c.04 30.911 25.089 55.96 56 56v16zM321.068 210.136c-39.746-.044-71.956-32.254-72-72 0-29.176 54.88-96.36 65.88-109.528l6.12-7.352 6.144 7.344c30.384 36.352 65.856 86.848 65.856 109.536-.044 39.746-32.254 71.956-72 72zm0-163.832c-36.8 45.264-56 80.12-56 91.832 0 30.928 25.072 56 56 56s56-25.072 56-56c0-11.464-19.56-47.016-56-91.832zM177.068 106.136c-21.646.108-39.413-17.097-40-38.736v-1.048l.24-1.024c2.296-9.848 15.384-32 33.336-56.52L177.068 0l6.456 8.8c19.928 27.264 31.048 48 33.248 56.504l.296 1.152v1.168c-.722 21.543-18.445 38.606-40 38.512zM153.14 68.024c1.077 12.44 11.442 22.018 23.928 22.112 12.439.046 22.834-9.455 23.904-21.848a208.713 208.713 0 00-23.904-40.992 204.956 204.956 0 00-23.928 40.728z" />
  </g>
</svg>
