<svg clip-rule="evenodd" fill-rule="evenodd" stroke-linejoin="round" stroke-miterlimit="2" viewBox="0 0 560 400" xmlns="http://www.w3.org/2000/svg"><path d="m442.8.2-48.3 22.9c-.2.1-.5.3-.6.5-.2.2-.3.4-.4.7s-.1.5-.1.8.1.5.2.8l73.4 154.7c27.3 57.6 20 101.2-21.5 121-33.6 15.9-62.5 4.8-85.1-34l-87-183.3c-35.2-74.3-83.2-94-140.2-66.9-37 17.6-58.5 49-58.1 88.9 0 .5-.1.9-.4 1.3s-.7.6-1.2.7-.9.1-1.4-.1c-.4-.2-.8-.5-1-1l-19-40c-.1-.2-.3-.5-.5-.6-.2-.2-.4-.3-.7-.4-.2-.2-.4-.2-.7-.2s-.5.1-.8.2l-48.2 22.9c-.5.2-.9.6-1 1.2-.2.5-.2 1.1.1 1.6l133.3 281.1c.2.5.7.9 1.2 1.1s1.1.2 1.6-.1l48.3-22.9c.2-.1.5-.3.6-.5.2-.2.3-.4.4-.7s.1-.5.1-.8-.1-.5-.2-.8l-71.4-150.4c-29.1-61.4-23.6-105.8 20.9-126.9 34.2-16.2 60.8-5.3 84.7 36.3 0 0 .1.1.1.2l86.1 181.4c33.2 70 84.8 94 139.2 68.2 42.1-20 59.6-50 58.5-89.6 0-.5.1-.9.4-1.3s.7-.6 1.2-.7.9-.1 1.4.1c.4.2.8.5 1 1l19.2 40.4c.1.2.3.5.5.6.2.2.4.3.7.4s.5.1.8.1.5-.1.8-.2l48.3-22.9c.2-.1.5-.3.6-.5.2-.2.3-.4.4-.7s.1-.5.1-.8-.1-.5-.2-.8l-133.4-281c-.2-.5-.7-.9-1.2-1.1s-1.1-.1-1.5.1z" fill="#1e65f3" fill-rule="nonzero" transform="matrix(.534404 0 0 .534404 125.247 100.005)"/></svg>