<?xml version="1.0" encoding="utf-8"?>
<!-- Generator: Adobe Illustrator 19.2.1, SVG Export Plug-In . SVG Version: 6.00 Build 0)  -->
<svg version="1.1" id="layer" xmlns="http://www.w3.org/2000/svg" xmlns:xlink="http://www.w3.org/1999/xlink" x="0px" y="0px"
	 viewBox="0 0 652 652" style="enable-background:new 0 0 652 652;" xml:space="preserve">
<style type="text/css">
	.st0{fill:#1E65F3;}
	.st1{fill:#121112;}
</style>
<path class="st0" d="M-0.1,443.8h15.7l44.9,69.8c1.6,2.4,3,5,4.3,7.6v-77.4h14.9v100.1H63.9l-44.8-69.8c-1.6-2.4-3-5-4.3-7.6v77.4
	h-15V443.8z M97.7,472.9h14.6v42.6c0,11,5.7,16.9,15.7,16.9c10.4,0,18.6-8.9,18.6-21.2v-38.3h14.6v71h-14.6v-11.5
	c-4.5,8.5-13.4,13.7-23,13.4c-13.9,0-25.9-8.6-25.9-27.3L97.7,472.9L97.7,472.9z"/>
<path class="st1" d="M268.2,519.6c-10.4,17-22.2,26.3-43.8,26.3c-28.5,0-49.6-21.4-49.6-52.1s22.6-52.1,50.4-52.1
	c20.5,0,35.9,10.7,42.8,25.9l-12.3,8.9c-7.1-13.9-17-20.7-30.8-20.7c-18.9,0-34.3,16.1-34.3,38.1c0,21.7,14.5,38.1,34.2,38.1
	c13.4,0,24-6.4,31.6-20.7L268.2,519.6L268.2,519.6z M284.6,559.2c2,0.9,4.2,1.4,6.4,1.4c3.7,0,6-1.1,8.6-7.6l3.3-8.7L274,472.9h16.7
	l20,51.2l19.9-51.2h16.1l-34.3,85.3c-4.6,11.6-11.3,15.9-19.9,15.9c-3.5,0-7-0.5-10.3-1.6L284.6,559.2L284.6,559.2z M357.1,472.9
	h14.6v10.9c4.4-7,14.2-12.9,25.2-12.9c17.7,0,32.8,14,32.8,37.5c0,23-15,37.5-34,37.5c-10.2,0-19.3-4.6-23.9-11.7v38.9h-14.6V472.9
	L357.1,472.9z M370.8,508.4c0,14.3,9.9,24,22,24c12.2,0,22-9.7,22-24c0-14.3-9.9-24-22-24C380.6,484.4,370.8,494.1,370.8,508.4z
	 M507.1,543.9h-14.6v-43.5c0-10.2-6-16.1-15.7-16.1c-10.4,0-19.5,8.6-19.5,22v37.5h-14.6V443.7h14.6v41.1
	c5.3-8.5,14.6-13.8,24.6-13.9c13.9,0,25.2,8.7,25.2,25V543.9L507.1,543.9z M532.9,511.6c0.6,12.6,9,21.6,21.6,21.6
	c11.6,0,17-6.3,21.2-14.7l11.3,6.7c-6.6,13.6-16.9,20.7-32.9,20.7c-19.5,0-35.7-15.3-35.7-37.5s16.3-37.5,36.5-37.5
	c20.6,0,34.3,14.7,34.3,35.5v5.2L532.9,511.6L532.9,511.6z M532.9,500.4h42.3c-1.1-11.6-10.9-17.7-20.7-17.7
	C543.9,482.7,535.7,490.1,532.9,500.4z M639.2,483.7c-1.8-0.6-3.7-0.9-5.6-0.9c-10.3,0-17.7,9.3-17.7,21.9v37.3h-14.6v-71h14.6v12
	c3.9-8.3,10.7-14,20.5-14c1.8,0,3.6,0.3,5.4,0.7L639.2,483.7L639.2,483.7z"/>
<path class="st0" d="M402.3,74.2L367.2,91c-0.8,0.4-1.1,1.3-0.7,2l53.4,113.8c19.9,42.3,14.5,74.4-15.7,88.9
	c-24.4,11.7-45.5,3.5-61.9-25L279.1,136c-25.6-54.6-60.6-69.1-102-49.2c-27,12.9-42.6,36-42.3,65.3c0,0.3-0.1,0.7-0.3,0.9
	c-0.4,0.5-1.2,0.7-1.8,0.4c-0.3-0.1-0.6-0.4-0.7-0.7l-13.8-29.4c-0.2-0.4-0.5-0.6-0.9-0.8c-0.4-0.1-0.8-0.1-1.1,0.1L81,139.5
	c-0.7,0.4-1.1,1.3-0.7,2l97,206.5c0.2,0.4,0.5,0.6,0.9,0.8c0.4,0.1,0.8,0.1,1.2-0.1l35.1-16.8c0.8-0.4,1.1-1.3,0.7-2c0,0,0,0,0,0
	l-51.9-110.6c-21.2-45-17.1-77.6,15.3-93.1c24.9-11.9,44.2-3.9,61.6,26.6c0,0,0,0.1,0.1,0.1l62.6,133.3
	c24.1,51.4,61.7,69.1,101.3,50.1c30.6-14.7,43.3-36.8,42.6-65.8c0-0.7,0.5-1.3,1.1-1.5c0.7-0.2,1.4,0.2,1.7,0.8l14,29.8
	c0.3,0.6,0.8,0.9,1.4,0.9c0.2,0,0.4-0.1,0.6-0.1l35.1-16.9c0.6-0.2,0.9-0.8,0.9-1.4c0-0.2-0.1-0.4-0.2-0.6l-97-206.5
	C403.9,74.2,403,73.9,402.3,74.2z"/>
</svg>
