<svg viewBox="0 0 64 64">
  <path d="M9 2h46v56H9z" fill="gray" />
  <path d="M9 50.959c.498.022.997.041 1.5.041C30.106 51 46 33.763 46 12.5c0-3.642-.476-7.161-1.348-10.5H9z"
    fill="#999" />
  <path d="M13 6h38v48H13z" fill="#ccc" />
  <path d="M13 50.894C31.438 49.502 46 32.85 46 12.5c0-2.219-.196-4.385-.532-6.5H13z" fill="#ebebeb" />
  <path d="M13 10h30v22H13z" fill="#c4ac83" />
  <path d="M43 27.987V10H13v22h28.107A39.697 39.697 0 0043 27.987z" fill="#d0bd9c" />
  <path d="M19 36h26v14H19z" fill="#c4ac83" />
  <path d="M38.614 36H19v13.867c7.913-2.11 14.784-7.086 19.614-13.867z" fill="#dccdb5" />
  <path d="M23 40h10v6H23z" fill="gray" />
  <path d="M23 46h4.96A35.64 35.64 0 0033 42.255V40H23z" fill="#b3b3b3" />
  <g fill="gray">
    <circle cx="24" cy="21" r="5" />
    <path d="M35 19h-6.422c.268.613.422 1.288.422 2s-.154 1.387-.422 2H35a2 2 0 100-4zM11 58h6v4h-6zM47 58h6v4h-6z" />
  </g>
  <path
    d="M38 13h2v2h-2zM38 27h2v2h-2zM16 13h2v2h-2zM16 27h2v2h-2zM36 40h2v2h-2zM40 40h2v2h-2zM36 44h2v2h-2zM40 44h2v2h-2z"
    fill="#fff" />
  <path
    d="M55 1H9a1 1 0 00-1 1v56a1 1 0 001 1h1v3a1 1 0 001 1h6a1 1 0 001-1v-3h28v3a1 1 0 001 1h6a1 1 0 001-1v-3h1a1 1 0 001-1V2a1 1 0 00-1-1zM16 61h-4v-2h4zm36 0h-4v-2h4zm2-4H10V3h44z" />
  <path
    d="M13 55h38a1 1 0 001-1V6a1 1 0 00-1-1H13a1 1 0 00-1 1v48a1 1 0 001 1zM50 7v46H14V33h29a1 1 0 001-1V10a1 1 0 00-1-1H14V7zM14 31V11h28v20z" />
  <path
    d="M35 18h-5.812A5.999 5.999 0 0024 15c-3.309 0-6 2.691-6 6s2.691 6 6 6a5.999 5.999 0 005.188-3H35c1.654 0 3-1.346 3-3s-1.346-3-3-3zm-11 7c-2.206 0-4-1.794-4-4s1.794-4 4-4 4 1.794 4 4-1.794 4-4 4zm11-3h-5.09c.055-.326.09-.659.09-1s-.035-.674-.09-1H35a1.001 1.001 0 010 2zM38 13h2v2h-2zM38 27h2v2h-2zM16 13h2v2h-2zM16 27h2v2h-2zM18 36v14a1 1 0 001 1h26a1 1 0 001-1V36a1 1 0 00-1-1H19a1 1 0 00-1 1zm2 1h24v12H20z" />
  <path
    d="M33 39H23a1 1 0 00-1 1v6a1 1 0 001 1h10a1 1 0 001-1v-6a1 1 0 00-1-1zm-1 6h-8v-4h8zM36 40h2v2h-2zM40 40h2v2h-2zM36 44h2v2h-2zM40 44h2v2h-2z" />
</svg>
