<svg viewBox="0 0 512 512">
  <path className="prefix__st0"
    d="M512 97.2c-19 8.4-39.3 13.9-60.5 16.6 21.8-13 38.4-33.4 46.2-58-20.3 12.1-42.7 20.6-66.6 25.4C411.9 60.7 384.4 48 354.5 48c-58.1 0-104.9 47.2-104.9 105 0 8.3.7 16.3 2.4 23.9-87.3-4.3-164.5-46.1-216.4-109.8-9.1 15.7-14.4 33.7-14.4 53.1 0 36.4 18.7 68.6 46.6 87.2-16.9-.3-33.4-5.2-47.4-12.9v1.2c0 51 36.4 93.4 84.1 103.1-8.5 2.3-17.9 3.5-27.5 3.5-6.7 0-13.5-.4-19.9-1.8 13.6 41.6 52.2 72.1 98.1 73.1-35.7 27.9-81.1 44.8-130.1 44.8-8.6 0-16.9-.4-25.1-1.4 46.5 30 101.6 47.1 161 47.1 193.2 0 298.8-160 298.8-298.7 0-4.6-.2-9.1-.4-13.6 20.8-14.8 38.3-33.3 52.6-54.6z" />
</svg>
